# xmcd
#
# Track frame offsets:
#	150
#	15706
#	26887
#	39374
#	52542
#	65353
#	79591
#	93144
#	103663
#	119468
#	134494
#
# Disc length: 2400 seconds
#
# Revision: 1
# Processed by: cddbd v1.4PL0 Copyright (c) Steve Scherf et al.
# Submitted via: EasyCDDAExtractor 6.0.0.1
#
DISCID=82095e0b
DTITLE=Karen Jo Fields - Chase the Blue
DYEAR=2003
DGENRE=blues
TTITLE0=Chase the Blue
TTITLE1=Let's Talk About Love
TTITLE2=Over the Moon
TTITLE3=Promise I Broke
TTITLE4=For What This Is Made Of
TTITLE5=Young Woman
TTITLE6=Under the Stars
TTITLE7=Lovin' In My Baby's Eyes
TTITLE8=Be Mine
TTITLE9=Dear Handbag
TTITLE10=Walking
EXTD=
EXTT0=
EXTT1=
EXTT2=
EXTT3=
EXTT4=
EXTT5=
EXTT6=
EXTT7=
EXTT8=
EXTT9=
EXTT10=
PLAYORDER=
